<svg xmlns="http://www.w3.org/2000/svg" viewBox="0 0 220 240" role="img" aria-label="Friendly travel assistant robot">
  <defs>
    <linearGradient id="body" x1="0" y1="0" x2="1" y2="1"><stop stop-color="#f8fbff"/><stop offset="1" stop-color="#cdd6e3"/></linearGradient>
    <linearGradient id="visor" x1="0" y1="0" x2="0" y2="1"><stop stop-color="#16c9ff"/><stop offset=".45" stop-color="#0869ed"/><stop offset="1" stop-color="#063aa9"/></linearGradient>
    <filter id="glow"><feGaussianBlur stdDeviation="5" result="b"/><feMerge><feMergeNode in="b"/><feMergeNode in="SourceGraphic"/></feMerge></filter>
  </defs>
  <ellipse cx="110" cy="226" rx="65" ry="9" fill="#071a3a" opacity=".18"/>
  <path d="M43 93c-19-8-27 6-25 24 2 14 10 22 22 19l13-5V99z" fill="url(#body)"/>
  <path d="M177 93c19-8 27 6 25 24-2 14-10 22-22 19l-13-5V99z" fill="url(#body)"/>
  <rect x="47" y="42" width="126" height="135" rx="42" fill="url(#body)"/>
  <path d="M77 45c2-25 64-25 66 0" fill="#dce4ef"/>
  <rect x="59" y="70" width="102" height="72" rx="34" fill="url(#visor)" stroke="#4ce4ff" stroke-width="4" filter="url(#glow)"/>
  <path d="M82 104c7-12 18-12 25 0" fill="none" stroke="#fff" stroke-width="8" stroke-linecap="round"/>
  <path d="M119 104c7-12 18-12 25 0" fill="none" stroke="#fff" stroke-width="8" stroke-linecap="round"/>
  <path d="M74 157c24 11 50 11 74 0v25c-24 14-50 14-74 0z" fill="#0b9bb2"/>
  <path d="M58 180c-25 8-28 34-8 41 18 6 31-9 36-28" fill="url(#body)"/>
  <path d="M162 180c25 8 28 34 8 41-18 6-31-9-36-28" fill="url(#body)"/>
  <circle cx="33" cy="110" r="7" fill="#0b2f87"/>
  <circle cx="187" cy="110" r="7" fill="#0b2f87"/>
</svg>